# xmcd CD database file
#
# Track frame offsets:
#	150
#	21681
#	40756
#	59899
#	75599
#	90923
#	114343
#	133482
#	150322
#	174285
#	187315
#	208458
#	228894
#	236855
#	246602
#	252180
#	257952
#	265335
#	270813
#	278642
#	287507
#	294289
#	301514
#	308662
#
# Disc length: 4235 seconds
#
# Revision: 0
# Processed by: cddbd v1.5.2PL0 Copyright (c) Steve Scherf et al.
# Submitted via: jetAudio 7
#
DISCID=5a108918
DTITLE=음악가 없음 - 앨범 없음
DYEAR=1900
DGENRE=장르 없음
TTITLE0=트랙 1
TTITLE1=트랙 2
TTITLE2=트랙 3
TTITLE3=트랙 4
TTITLE4=트랙 5
TTITLE5=트랙 6
TTITLE6=트랙 7
TTITLE7=트랙 8
TTITLE8=트랙 9
TTITLE9=트랙 10
TTITLE10=트랙 11
TTITLE11=트랙 12
TTITLE12=트랙 13
TTITLE13=트랙 14
TTITLE14=트랙 15
TTITLE15=트랙 16
TTITLE16=트랙 17
TTITLE17=트랙 18
TTITLE18=트랙 19
TTITLE19=트랙 20
TTITLE20=트랙 21
TTITLE21=트랙 22
TTITLE22=트랙 23
TTITLE23=트랙 24
EXTD=
EXTT0=
EXTT1=
EXTT2=
EXTT3=
EXTT4=
EXTT5=
EXTT6=
EXTT7=
EXTT8=
EXTT9=
EXTT10=
EXTT11=
EXTT12=
EXTT13=
EXTT14=
EXTT15=
EXTT16=
EXTT17=
EXTT18=
EXTT19=
EXTT20=
EXTT21=
EXTT22=
EXTT23=
PLAYORDER=
